<svg width="1149" height="664" viewBox="0 0 1149 664" fill="none" xmlns="http://www.w3.org/2000/svg">
<path d="M689.191 44.7454L77.4994 397.906M765.653 88.8905L153.961 442.051M842.114 133.036L230.422 486.196M918.576 177.181L306.884 530.341M995.037 221.326L383.345 574.486M1071.5 265.471L459.807 618.631M536.268 44.7454L1071.5 353.761M459.807 88.8905L995.037 397.906M383.345 133.036L918.576 442.051M306.884 177.181L842.114 486.196M230.422 221.326L765.653 530.341M153.961 265.471L689.191 574.486M77.4994 309.616L612.73 618.631M612.73 0.600361L1.0379 353.761L536.268 662.776L1147.96 309.616L612.73 0.600361Z" stroke="#E6C4FD" stroke-width="1.2"/>
</svg>
