<svg width="12" height="12" viewBox="0 0 12 12" fill="none" xmlns="http://www.w3.org/2000/svg">
<path d="M9.57193 10.2608C9.38351 10.2608 9.20355 10.1859 9.07166 10.0527C8.93977 9.91945 8.86674 9.73876 8.86865 9.55034L8.92312 4.1582L2.97382 10.0547C2.83868 10.1885 2.65647 10.2637 2.46728 10.2637C2.27808 10.2637 2.09739 10.1885 1.96496 10.0547C1.83253 9.92097 1.7592 9.73953 1.76111 9.55034C1.76302 9.36115 1.84001 9.17971 1.97515 9.04594L7.93148 3.1565H2.53907C2.35064 3.1565 2.17069 3.08165 2.0388 2.94842C1.90691 2.81519 1.83388 2.63449 1.83578 2.44607C1.83769 2.25765 1.91436 2.07695 2.04895 1.94372C2.18353 1.81049 2.365 1.73564 2.55342 1.73564H9.65805C9.75088 1.73677 9.84241 1.75607 9.92745 1.79248C10.1003 1.86457 10.2369 2.00252 10.3072 2.17611C10.3428 2.26152 10.3612 2.35323 10.3613 2.44607L10.2896 9.55034C10.2877 9.73876 10.211 9.91945 10.0764 10.0527C9.94183 10.1859 9.76036 10.2608 9.57193 10.2608Z" fill="#232325"/>
</svg>
