<svg width="18" height="18" viewBox="0 0 18 18" fill="none" xmlns="http://www.w3.org/2000/svg">
<path fill-rule="evenodd" clip-rule="evenodd" d="M8.99882 1.5C8.00426 1.5 7.05043 1.89509 6.34717 2.59835C5.64391 3.30161 5.24882 4.25544 5.24882 5.25C5.24882 6.24456 5.64391 7.19839 6.34717 7.90165C7.05043 8.60491 8.00426 9 8.99882 9C9.99338 9 10.9472 8.60491 11.6505 7.90165C12.3537 7.19839 12.7488 6.24456 12.7488 5.25C12.7488 4.25544 12.3537 3.30161 11.6505 2.59835C10.9472 1.89509 9.99338 1.5 8.99882 1.5ZM6.74882 9.75C5.50157 9.75 4.30232 10.3185 3.59957 11.175C3.24332 11.61 2.99207 12.1478 2.97032 12.744C2.94782 13.353 3.16757 13.947 3.62132 14.4653C4.72532 15.729 6.48857 16.5 8.99882 16.5C11.5091 16.5 13.2723 15.729 14.3763 14.4653C14.8301 13.947 15.0498 13.353 15.0273 12.744C15.0048 12.1478 14.7551 11.61 14.3973 11.175C13.6961 10.32 12.4968 9.75 11.2488 9.75H6.74882Z" fill="#232325"/>
</svg>
